<?xml version="1.0" encoding="UTF-8"?>
<svg id="Layer_1" xmlns="http://www.w3.org/2000/svg" viewBox="0 0 140.91 87.3">
  <defs>
    <style>
      .cls-1 {
        fill: #fff;
      }
    </style>
  </defs>
  <path class="cls-1" d="M139.93,61.73c-.73-1.22-1.71-1.83-2.93-1.83-1.14,0-2.16.61-3.05,1.83l-1.22,2.32c-2.03,4.47-4.37,8.42-7.02,11.83-2.64,3.42-5.79,5.12-9.46,5.12-3.17,0-5.47-1.06-6.89-3.17-1.42-2.11-2.13-4.72-2.13-7.81V17.32c0-2.03.37-3.66,1.1-4.88.73-1.22,1.73-2.17,2.99-2.87,1.26-.69,2.09-1.16,2.5-1.4,1.22-.89,1.83-1.91,1.83-3.05,0-1.22-.61-2.2-1.83-2.93-.98-.65-3.38-1.16-7.2-1.52-3.82-.37-8.09-.55-12.81-.55s-8.99.18-12.81.55c-1.44.14-2.68.3-3.72.48-.68-.23-1.45-.43-2.32-.6-1.91-.37-3.97-.55-6.16-.55s-4.25.18-6.16.55c-1.91.37-3.4.88-4.45,1.53-.65.41-1.18.91-1.59,1.52-.41.61-.61,1.24-.61,1.89,0,1.06.49,1.91,1.46,2.56.89.57,1.56,1.08,2.01,1.53.45.45.67,1.04.67,1.77,0,1.3-1.14,3.25-3.42,5.86l-21.47,23.79v-23.67c0-2.03.37-3.66,1.1-4.88.73-1.22,1.73-2.17,2.99-2.87,1.26-.69,2.09-1.16,2.5-1.4,1.22-.89,1.83-1.91,1.83-3.05,0-1.22-.61-2.2-1.83-2.93-.98-.65-3.38-1.16-7.2-1.52C30.82.31,26.55.12,21.84.12s-8.99.18-12.81.55c-3.82.37-6.22.88-7.2,1.52-1.22.73-1.83,1.71-1.83,2.93,0,1.14.61,2.16,1.83,3.05.41.24,1.14.65,2.2,1.22,1.06.57,2.05,1.42,2.99,2.56.93,1.14,1.4,2.93,1.4,5.37v52.7c0,2.03-.37,3.66-1.1,4.88-.73,1.22-1.73,2.18-2.99,2.87-1.26.69-2.09,1.16-2.5,1.4-1.22.73-1.83,1.71-1.83,2.93,0,1.14.61,2.16,1.83,3.05.98.65,3.33,1.16,7.08,1.52,3.74.37,8.05.55,12.93.55s9.21-.18,12.99-.55c3.78-.37,6.12-.87,7.02-1.52,1.22-.81,1.83-1.83,1.83-3.05s-.61-2.2-1.83-2.93c-.41-.24-1.14-.65-2.2-1.22-1.06-.57-2.05-1.42-2.99-2.56-.94-1.14-1.4-2.93-1.4-5.37v-19.4l.98-1.1c4.72,9.27,8.95,16.53,12.69,21.78,3.74,5.25,7.83,9.19,12.26,11.83,4.43,2.64,9.74,4.01,15.92,4.09,2.36.16,4.66.06,6.89-.3.24-.04.45-.09.68-.13,3.97.21,8.95.32,14.99.32h5.86c8.21,0,14.92-.12,20.13-.37,5.2-.24,8.66-.77,10.37-1.59,1.54-.81,2.75-2.89,3.6-6.22.85-3.33,1.28-6.83,1.28-10.49,0-3.42-.33-5.65-.98-6.71ZM59.66,36.97l-4.88-7.93,10.61-11.83c1.95-2.2,3.8-3.84,5.55-4.94,1.6-1,3.35-1.91,5.25-2.75.98.57,1.92,1.38,2.8,2.44.93,1.14,1.4,2.93,1.4,5.37v52.25c-1.06-1.47-2.18-3.08-3.35-4.85-5.17-7.77-10.96-17.02-17.38-27.75Z"/>
</svg>